<svg class="marks" width="800" height="450" viewBox="0 0 800 450" version="1.1" xmlns="http://www.w3.org/2000/svg" xmlns:xlink="http://www.w3.org/1999/xlink"><rect width="800" height="450" style="fill: white;"></rect><g transform="translate(46,22)"><g class="mark-group role-frame root"><g transform="translate(0,0)"><path class="background" d="M0,0h688v396h-688Z" style="fill: none;"></path><g><g class="mark-group role-axis"><g transform="translate(0.5,396.5)"><path class="background" d="M0,0h0v0h0Z" style="pointer-events: none; fill: none;"></path><g><g class="mark-rule role-axis-tick" style="pointer-events: none;"><line transform="translate(58,0)" x2="0" y2="5" style="fill: none; stroke: #888; stroke-width: 1; opacity: 1;"></line><line transform="translate(117,0)" x2="0" y2="5" style="fill: none; stroke: #888; stroke-width: 1; opacity: 1;"></line><line transform="translate(176,0)" x2="0" y2="5" style="fill: none; stroke: #888; stroke-width: 1; opacity: 1;"></line><line transform="translate(236,0)" x2="0" y2="5" style="fill: none; stroke: #888; stroke-width: 1; opacity: 1;"></line><line transform="translate(294,0)" x2="0" y2="5" style="fill: none; stroke: #888; stroke-width: 1; opacity: 1;"></line><line transform="translate(353,0)" x2="0" y2="5" style="fill: none; stroke: #888; stroke-width: 1; opacity: 1;"></line><line transform="translate(413,0)" x2="0" y2="5" style="fill: none; stroke: #888; stroke-width: 1; opacity: 1;"></line><line transform="translate(472,0)" x2="0" y2="5" style="fill: none; stroke: #888; stroke-width: 1; opacity: 1;"></line><line transform="translate(530,0)" x2="0" y2="5" style="fill: none; stroke: #888; stroke-width: 1; opacity: 1;"></line><line transform="translate(589,0)" x2="0" y2="5" style="fill: none; stroke: #888; stroke-width: 1; opacity: 1;"></line><line transform="translate(648,0)" x2="0" y2="5" style="fill: none; stroke: #888; stroke-width: 1; opacity: 1;"></line></g><g class="mark-text role-axis-label" style="pointer-events: none;"><text text-anchor="middle" transform="translate(57.9793427230047,15)" style="font-family: sans-serif; font-size: 10px; fill: #000; opacity: 1;">April</text><text text-anchor="middle" transform="translate(116.76619718309858,15)" style="font-family: sans-serif; font-size: 10px; fill: #000; opacity: 1;">July</text><text text-anchor="middle" transform="translate(176.19906103286385,15)" style="font-family: sans-serif; font-size: 10px; fill: #000; opacity: 1;">October</text><text text-anchor="middle" transform="translate(235.63192488262914,15)" style="font-family: sans-serif; font-size: 10px; fill: #000; opacity: 1;">2008</text><text text-anchor="middle" transform="translate(294.418779342723,15)" style="font-family: sans-serif; font-size: 10px; fill: #000; opacity: 1;">April</text><text text-anchor="middle" transform="translate(353.20563380281686,15)" style="font-family: sans-serif; font-size: 10px; fill: #000; opacity: 1;">July</text><text text-anchor="middle" transform="translate(412.6384976525822,15)" style="font-family: sans-serif; font-size: 10px; fill: #000; opacity: 1;">October</text><text text-anchor="middle" transform="translate(472.07136150234743,15)" style="font-family: sans-serif; font-size: 10px; fill: #000; opacity: 1;">2009</text><text text-anchor="middle" transform="translate(530.21220657277,15)" style="font-family: sans-serif; font-size: 10px; fill: #000; opacity: 1;">April</text><text text-anchor="middle" transform="translate(588.9990610328639,15)" style="font-family: sans-serif; font-size: 10px; fill: #000; opacity: 1;">July</text><text text-anchor="middle" transform="translate(648.4319248826291,15)" style="font-family: sans-serif; font-size: 10px; fill: #000; opacity: 1;">October</text></g><g class="mark-rule role-axis-domain" style="pointer-events: none;"><line transform="translate(0,0)" x2="688" y2="0" style="fill: none; stroke: #888; stroke-width: 1; opacity: 1;"></line></g><g class="mark-text role-axis-title" style="pointer-events: none;"><text text-anchor="middle" transform="translate(344,30)" style="font-family: sans-serif; font-size: 11px; font-weight: bold; fill: #000; opacity: 1;">date</text></g></g><path class="foreground" d="" style="pointer-events: none; display: none; fill: none;"></path></g></g><g class="mark-group role-axis"><g transform="translate(0.5,0.5)"><path class="background" d="M0,0h0v0h0Z" style="pointer-events: none; fill: none;"></path><g><g class="mark-rule role-axis-tick" style="pointer-events: none;"><line transform="translate(0,396)" x2="-5" y2="0" style="fill: none; stroke: #888; stroke-width: 1; opacity: 1;"></line><line transform="translate(0,347)" x2="-5" y2="0" style="fill: none; stroke: #888; stroke-width: 1; opacity: 1;"></line><line transform="translate(0,297)" x2="-5" y2="0" style="fill: none; stroke: #888; stroke-width: 1; opacity: 1;"></line><line transform="translate(0,248)" x2="-5" y2="0" style="fill: none; stroke: #888; stroke-width: 1; opacity: 1;"></line><line transform="translate(0,198)" x2="-5" y2="0" style="fill: none; stroke: #888; stroke-width: 1; opacity: 1;"></line><line transform="translate(0,149)" x2="-5" y2="0" style="fill: none; stroke: #888; stroke-width: 1; opacity: 1;"></line><line transform="translate(0,99)" x2="-5" y2="0" style="fill: none; stroke: #888; stroke-width: 1; opacity: 1;"></line><line transform="translate(0,50)" x2="-5" y2="0" style="fill: none; stroke: #888; stroke-width: 1; opacity: 1;"></line><line transform="translate(0,0)" x2="-5" y2="0" style="fill: none; stroke: #888; stroke-width: 1; opacity: 1;"></line></g><g class="mark-text role-axis-label" style="pointer-events: none;"><text text-anchor="end" transform="translate(-7,399)" style="font-family: sans-serif; font-size: 10px; fill: #000; opacity: 1;">0</text><text text-anchor="end" transform="translate(-7,350)" style="font-family: sans-serif; font-size: 10px; fill: #000; opacity: 1;">100</text><text text-anchor="end" transform="translate(-7,300)" style="font-family: sans-serif; font-size: 10px; fill: #000; opacity: 1;">200</text><text text-anchor="end" transform="translate(-7,251)" style="font-family: sans-serif; font-size: 10px; fill: #000; opacity: 1;">300</text><text text-anchor="end" transform="translate(-7,201)" style="font-family: sans-serif; font-size: 10px; fill: #000; opacity: 1;">400</text><text text-anchor="end" transform="translate(-7,152)" style="font-family: sans-serif; font-size: 10px; fill: #000; opacity: 1;">500</text><text text-anchor="end" transform="translate(-7,102)" style="font-family: sans-serif; font-size: 10px; fill: #000; opacity: 1;">600</text><text text-anchor="end" transform="translate(-7,53)" style="font-family: sans-serif; font-size: 10px; fill: #000; opacity: 1;">700</text><text text-anchor="end" transform="translate(-7,3)" style="font-family: sans-serif; font-size: 10px; fill: #000; opacity: 1;">800</text></g><g class="mark-rule role-axis-domain" style="pointer-events: none;"><line transform="translate(0,396)" x2="0" y2="-396" style="fill: none; stroke: #888; stroke-width: 1; opacity: 1;"></line></g><g class="mark-text role-axis-title" style="pointer-events: none;"><text text-anchor="middle" transform="translate(-35,198) rotate(-90) translate(0,-2)" style="font-family: sans-serif; font-size: 11px; font-weight: bold; fill: #000; opacity: 1;">price</text></g></g><path class="foreground" d="" style="pointer-events: none; display: none; fill: none;"></path></g></g><g class="mark-line role-mark"><path d="M0,382L20.026291079812207,383L38.11455399061033,383L58.140845070422536,382L77.52112676056338,382L97.54741784037557,382L116.92769953051643,382L136.95399061032865,382L156.98028169014086,382L176.3605633802817,379L196.3868544600939,380L215.76713615023473,379L235.79342723004694,381L255.81971830985916,383L274.55399061032864,383L294.58028169014085,382L313.9605633802817,383L333.9868544600939,383L353.3671361502347,384L373.39342723004694,383L393.41971830985915,383L412.8,385L432.82629107981217,386L452.2065727699531,387L472.2328638497653,388L492.2591549295775,388L510.3474178403756,387L530.3737089201878,386L549.7539906103286,386L569.7802816901409,384L589.1605633802817,385L609.1868544600939,384L629.2131455399061,383L648.5934272300469,382L668.6197183098592,382L688,381" style="fill: none; stroke: #72b7b2; stroke-width: 2;"></path></g><g class="mark-line role-mark"><path d="M0,377L20.026291079812207,377L38.11455399061033,376L58.140845070422536,366L77.52112676056338,362L97.54741784037557,362L116.92769953051643,357L136.95399061032865,356L156.98028169014086,350L176.3605633802817,352L196.3868544600939,351L215.76713615023473,350L235.79342723004694,358L255.81971830985916,364L274.55399061032864,361L294.58028169014085,357L313.9605633802817,356L333.9868544600939,360L353.3671361502347,358L373.39342723004694,356L393.41971830985915,360L412.8,368L432.82629107981217,375L452.2065727699531,371L472.2328638497653,367L492.2591549295775,364L510.3474178403756,360L530.3737089201878,356L549.7539906103286,357L569.7802816901409,355L589.1605633802817,354L609.1868544600939,356L629.2131455399061,350L648.5934272300469,337L668.6197183098592,329L688,329" style="fill: none; stroke: #e45756; stroke-width: 2;"></path></g><g class="mark-line role-mark"><path d="M0,350L20.026291079812207,352L38.11455399061033,352L58.140845070422536,348L77.52112676056338,346L97.54741784037557,346L116.92769953051643,344L136.95399061032865,341L156.98028169014086,340L176.3605633802817,341L196.3868544600939,346L215.76713615023473,345L235.79342723004694,345L255.81971830985916,342L274.55399061032864,341L294.58028169014085,338L313.9605633802817,334L333.9868544600939,339L353.3671361502347,335L373.39342723004694,338L393.41971830985915,340L412.8,351L432.82629107981217,357L452.2065727699531,355L472.2328638497653,352L492.2591549295775,351L510.3474178403756,349L530.3737089201878,346L549.7539906103286,344L569.7802816901409,345L589.1605633802817,338L609.1868544600939,338L629.2131455399061,337L648.5934272300469,337L668.6197183098592,334L688,331" style="fill: none; stroke: #54a24b; stroke-width: 2;"></path></g><g class="mark-line role-mark"><path d="M0,148L20.026291079812207,174L38.11455399061033,169L58.140845070422536,163L77.52112676056338,150L97.54741784037557,137L116.92769953051643,144L136.95399061032865,141L156.98028169014086,115L176.3605633802817,46L196.3868544600939,53L215.76713615023473,54L235.79342723004694,117L255.81971830985916,163L274.55399061032864,178L294.58028169014085,112L313.9605633802817,106L333.9868544600939,135L353.3671361502347,161L373.39342723004694,167L393.41971830985915,198L412.8,218L432.82629107981217,251L452.2065727699531,244L472.2328638497653,228L492.2591549295775,229L510.3474178403756,224L530.3737089201878,200L549.7539906103286,189L569.7802816901409,187L589.1605633802817,177L609.1868544600939,167L629.2131455399061,151L648.5934272300469,131L668.6197183098592,107L688,89" style="fill: none; stroke: #4c78a8; stroke-width: 2;"></path></g><g class="mark-line role-mark"><path d="M0,354L20.026291079812207,354L38.11455399061033,350L58.140845070422536,347L77.52112676056338,336L97.54741784037557,336L116.92769953051643,331L136.95399061032865,327L156.98028169014086,320L176.3605633802817,302L196.3868544600939,306L215.76713615023473,298L235.79342723004694,329L255.81971830985916,334L274.55399061032864,325L294.58028169014085,310L313.9605633802817,303L333.9868544600939,313L353.3671361502347,317L373.39342723004694,312L393.41971830985915,340L412.8,343L432.82629107981217,350L452.2065727699531,354L472.2328638497653,351L492.2591549295775,352L510.3474178403756,344L530.3737089201878,334L549.7539906103286,329L569.7802816901409,325L589.1605633802817,315L609.1868544600939,313L629.2131455399061,304L648.5934272300469,303L668.6197183098592,297L688,292" style="fill: none; stroke: #f58518; stroke-width: 2;"></path></g><g class="mark-group role-legend"><g transform="translate(706,0)"><path class="background" d="M0,0h48v63h-48Z" style="pointer-events: none; fill: none;"></path><g><g class="mark-group role-legend-entry"><g transform="translate(0,0)"><path class="background" d="M0,0h0v0h0Z" style="pointer-events: none; fill: none;"></path><g><g class="mark-group role-scope"><g transform="translate(0,0)"><path class="background" d="M0,0h48v11h-48Z" style="pointer-events: none; fill: none; opacity: 1;"></path><g><g class="mark-symbol role-legend-symbol" style="pointer-events: none;"><path transform="translate(6,6)" d="M5,0A5,5,0,1,1,-5,0A5,5,0,1,1,5,0" style="fill: #4c78a8; stroke-width: 1.5; opacity: 1;"></path></g><g class="mark-text role-legend-label" style="pointer-events: none;"><text text-anchor="start" transform="translate(16,9)" style="font-family: sans-serif; font-size: 10px; fill: #000; opacity: 1;">GOOG</text></g></g><path class="foreground" d="" style="pointer-events: none; display: none; fill: none;"></path></g><g transform="translate(0,13)"><path class="background" d="M0,0h48v11h-48Z" style="pointer-events: none; fill: none; opacity: 1;"></path><g><g class="mark-symbol role-legend-symbol" style="pointer-events: none;"><path transform="translate(6,6)" d="M5,0A5,5,0,1,1,-5,0A5,5,0,1,1,5,0" style="fill: #f58518; stroke-width: 1.5; opacity: 1;"></path></g><g class="mark-text role-legend-label" style="pointer-events: none;"><text text-anchor="start" transform="translate(16,9)" style="font-family: sans-serif; font-size: 10px; fill: #000; opacity: 1;">AAPL</text></g></g><path class="foreground" d="" style="pointer-events: none; display: none; fill: none;"></path></g><g transform="translate(0,26)"><path class="background" d="M0,0h48v11h-48Z" style="pointer-events: none; fill: none; opacity: 1;"></path><g><g class="mark-symbol role-legend-symbol" style="pointer-events: none;"><path transform="translate(6,6)" d="M5,0A5,5,0,1,1,-5,0A5,5,0,1,1,5,0" style="fill: #e45756; stroke-width: 1.5; opacity: 1;"></path></g><g class="mark-text role-legend-label" style="pointer-events: none;"><text text-anchor="start" transform="translate(16,9)" style="font-family: sans-serif; font-size: 10px; fill: #000; opacity: 1;">AMZN</text></g></g><path class="foreground" d="" style="pointer-events: none; display: none; fill: none;"></path></g><g transform="translate(0,39)"><path class="background" d="M0,0h48v11h-48Z" style="pointer-events: none; fill: none; opacity: 1;"></path><g><g class="mark-symbol role-legend-symbol" style="pointer-events: none;"><path transform="translate(6,6)" d="M5,0A5,5,0,1,1,-5,0A5,5,0,1,1,5,0" style="fill: #72b7b2; stroke-width: 1.5; opacity: 1;"></path></g><g class="mark-text role-legend-label" style="pointer-events: none;"><text text-anchor="start" transform="translate(16,9)" style="font-family: sans-serif; font-size: 10px; fill: #000; opacity: 1;">MSFT</text></g></g><path class="foreground" d="" style="pointer-events: none; display: none; fill: none;"></path></g><g transform="translate(0,52)"><path class="background" d="M0,0h48v11h-48Z" style="pointer-events: none; fill: none; opacity: 1;"></path><g><g class="mark-symbol role-legend-symbol" style="pointer-events: none;"><path transform="translate(6,6)" d="M5,0A5,5,0,1,1,-5,0A5,5,0,1,1,5,0" style="fill: #54a24b; stroke-width: 1.5; opacity: 1;"></path></g><g class="mark-text role-legend-label" style="pointer-events: none;"><text text-anchor="start" transform="translate(16,9)" style="font-family: sans-serif; font-size: 10px; fill: #000; opacity: 1;">IBM</text></g></g><path class="foreground" d="" style="pointer-events: none; display: none; fill: none;"></path></g></g></g><path class="foreground" d="" style="pointer-events: none; display: none; fill: none;"></path></g></g></g><path class="foreground" d="" style="pointer-events: none; display: none; fill: none;"></path></g></g><g class="mark-group role-title"><g transform="translate(354,-22)"><path class="background" d="M0,0h0v0h0Z" style="pointer-events: none; fill: none;"></path><g><g class="mark-text role-title-text" style="pointer-events: none;"><text text-anchor="middle" transform="translate(0,10)" style="font-family: sans-serif; font-size: 13px; font-weight: bold; fill: #000; opacity: 1;">Stock Price (2007-2010)</text></g></g><path class="foreground" d="" style="pointer-events: none; display: none; fill: none;"></path></g></g></g><path class="foreground" d="" style="display: none; fill: none;"></path></g></g></g></svg>